<svg height="48pt" viewBox="0 0 48 48" width="48pt" xmlns="http://www.w3.org/2000/svg" xmlns:xlink="http://www.w3.org/1999/xlink"><linearGradient id="a" gradientUnits="userSpaceOnUse" x1="4.624984" x2="47.390172" y1="42.750014" y2="7.58421"><stop offset="0" stop-color="#00c4ff"/><stop offset=".83888397938" stop-color="#0072ff"/></linearGradient><path d="m24.07 5c5.02.02 9.84 2.03 13.39 5.59s5.54 8.38 5.54 13.41c0 5.04-2 9.87-5.56 13.43s-8.39 5.57-13.43 5.57h-17.75c-.33 0-.66-.13-.89-.37-.24-.23-.37-.56-.37-.89v-17.75c0-5.03 2.01-9.87 5.57-13.43s8.4-5.56 13.43-5.56zm-.14-4h.07c6.1 0 11.95 2.42 16.26 6.74 4.32 4.31 6.74 10.16 6.74 16.26s-2.42 11.95-6.73 16.26-10.16 6.74-16.26 6.74h-17.75c-1.4 0-2.73-.55-3.72-1.54s-1.54-2.32-1.54-3.72v-17.75c0-6.08 2.42-11.92 6.72-16.23 4.29-4.31 10.12-6.74 16.21-6.76zm4.728 10.506c-3.596 0-6.511 2.915-6.511 6.511v5.936 7.088.724c-.344 1.684-1.899 2.894-3.618 2.894-1.998 0-3.618-1.62-3.618-3.618s1.62-3.618 3.618-3.618h2.171v-4.341h-2.171c-4.396 0-7.959 3.564-7.959 7.959 0 4.396 3.563 7.959 7.959 7.959 4.395 0 7.959-3.563 7.959-7.959v-3.618h2.17c1.199 0 2.171-.971 2.171-2.17s-.972-2.171-2.171-2.171h-2.17v-5.065c0-1.198.972-2.17 2.17-2.17 1.199 0 2.171.972 2.171 2.17v1.447c0 1.199.972 2.171 2.171 2.171 1.198 0 2.17-.972 2.17-2.171v-1.447c0-3.596-2.915-6.511-6.512-6.511z" fill="url(#a)" fill-rule="evenodd"/></svg>
